# xmcd CD database file
#
# Track frame offsets:
#	150
#	18088
#	38946
#	60124
#	102517
#	142625
#	171608
#	190686
#	213974
#	235182
#
# Disc length: 3648 seconds
#
# Revision: 1
# Processed by: cddbd v1.5.2PL0 Copyright (c) Steve Scherf et al.
# Submitted via: CDex 1.51
#
DISCID=7a0e3e0a
DTITLE=Various Artist - my first jazz-sentimental journey jazz.ccd
DYEAR=1997
DGENRE=Jazz
TTITLE0=Elvira Madigan -- Niels.H.Q.Pederson
TTITLE1=A Song for You -- Kimito Itoh
TTITLE2=In A Sentimental Mood -- Stephane Grappelli
TTITLE3=Summer Knows Phil woods,Vincent Herring, Antonio Hart
TTITLE4=A second Chance -- Fred Karlin
TTITLE5=I'll Wait For You -- McCoy Tyner
TTITLE6=Lullaby Of The Leaves -- Niels.H.Q.Pederson
TTITLE7=What Are You Doing The Rest Of Your Life -- Kimiko Itoh
TTITLE8=Willow Weep For Me -- Kenny Drew
TTITLE9=Lose Of Love -- McCoy Tyner
EXTD=YEAR: 1997
EXTT0=
EXTT1=
EXTT2=
EXTT3=
EXTT4=
EXTT5=
EXTT6=
EXTT7=
EXTT8=
EXTT9=
PLAYORDER=
